<?xml version="1.0" encoding="UTF-8"?>
<!DOCTYPE svg PUBLIC "-//W3C//DTD SVG 1.1//EN" "http://www.w3.org/Graphics/SVG/1.1/DTD/svg11.dtd">
<svg xmlns="http://www.w3.org/2000/svg" version="1.1" width="345px" height="185px" style="shape-rendering:geometricPrecision; text-rendering:geometricPrecision; image-rendering:optimizeQuality; fill-rule:evenodd; clip-rule:evenodd" xmlns:xlink="http://www.w3.org/1999/xlink">
<g><path style="opacity:1" fill="#fefefe" d="M -0.5,-0.5 C 114.5,-0.5 229.5,-0.5 344.5,-0.5C 344.5,61.1667 344.5,122.833 344.5,184.5C 229.5,184.5 114.5,184.5 -0.5,184.5C -0.5,122.833 -0.5,61.1667 -0.5,-0.5 Z"/></g>
<g><path style="opacity:1" fill="#1c448b" d="M 112.5,128.5 C 114.167,126.5 115.833,124.5 117.5,122.5C 124.322,120.084 124.989,116.75 119.5,112.5C 117.552,109.536 115.552,106.536 113.5,103.5C 114.914,102.376 116.414,101.376 118,100.5C 119.742,95.1059 121.576,89.7726 123.5,84.5C 126.449,80.3434 128.449,75.6767 129.5,70.5C 133.623,65.1758 136.623,59.1758 138.5,52.5C 140.666,49.8095 140.999,46.8095 139.5,43.5C 139.043,42.7025 138.376,42.3691 137.5,42.5C 134.739,39.8644 131.406,39.0311 127.5,40C 125.482,42.8887 124.149,46.0554 123.5,49.5C 122.5,50.8333 121.5,52.1667 120.5,53.5C 122.542,42.5821 128.209,34.0821 137.5,28C 155.606,18.1819 174.273,17.0152 193.5,24.5C 211.375,10.853 231.041,7.68629 252.5,15C 264.335,19.4034 273.001,27.2367 278.5,38.5C 295.52,39.3306 310.02,45.6639 322,57.5C 331.023,69.4213 331.856,81.9213 324.5,95C 340.04,115.992 337.373,134.326 316.5,150C 303.189,156.498 289.189,158.665 274.5,156.5C 257.011,174.378 236.011,180.211 211.5,174C 205.542,171.354 199.876,168.188 194.5,164.5C 183.587,170.449 171.92,172.615 159.5,171C 138.496,169.106 124.663,158.273 118,138.5C 117.502,135.518 117.335,132.518 117.5,129.5C 115.784,129.371 114.117,129.038 112.5,128.5 Z"/></g>
<g><path style="opacity:1" fill="#ef9ba6" d="M 137.5,42.5 C 139.777,45.6174 140.11,48.9508 138.5,52.5C 134.298,50.2326 129.965,48.2326 125.5,46.5C 126.373,44.5866 127.373,42.7533 128.5,41C 131.594,40.7488 134.594,41.2488 137.5,42.5 Z"/></g>
<g><path style="opacity:1" fill="#221c24" d="M 137.5,42.5 C 138.376,42.3691 139.043,42.7025 139.5,43.5C 140.999,46.8095 140.666,49.8095 138.5,52.5C 140.11,48.9508 139.777,45.6174 137.5,42.5 Z"/></g>
<g><path style="opacity:1" fill="#eee5cb" d="M 79.5,62.5 C 80.4194,65.0892 82.086,67.0892 84.5,68.5C 87.4108,73.7461 91.0775,78.4127 95.5,82.5C 96.4431,85.1092 98.1097,87.1092 100.5,88.5C 101.845,90.6968 103.011,93.0302 104,95.5C 104.671,94.7476 105.504,94.4142 106.5,94.5C 107.486,96.4077 109.152,97.4077 111.5,97.5C 113.099,97.2322 114.432,97.5655 115.5,98.5C 114.382,101.081 112.382,102.747 109.5,103.5C 107.575,103.41 106.408,102.41 106,100.5C 105.365,102.635 105.699,104.635 107,106.5C 108.599,104.964 110.433,104.464 112.5,105C 114.333,107.998 116.666,110.498 119.5,112.5C 119.92,114.094 120.586,115.594 121.5,117C 120.35,118.981 119.016,120.814 117.5,122.5C 105.059,132.431 92.7261,142.598 80.5,153C 79.8333,153.667 79.1667,153.667 78.5,153C 77.0016,150.336 75.0016,148.17 72.5,146.5C 70.8892,142.949 68.5558,139.949 65.5,137.5C 58.6465,127.795 51.3132,118.462 43.5,109.5C 38.4054,101.681 32.5721,94.3476 26,87.5C 24.7107,85.9452 24.044,84.2785 24,82.5C 37.2603,71.1179 50.4269,59.6179 63.5,48C 64.5,47.3333 65.5,47.3333 66.5,48C 70.6989,53.028 75.0322,57.8613 79.5,62.5 Z"/></g>
<g><path style="opacity:1" fill="#307fd2" d="M 123.5,49.5 C 128.743,49.022 133.076,50.6886 136.5,54.5C 135.3,55.2916 133.967,55.2916 132.5,54.5C 129.358,52.9788 126.358,51.3121 123.5,49.5 Z"/></g>
<g><path style="opacity:1" fill="#353430" d="M 51.5,51.5 C 50.4168,51.4606 49.4168,51.1272 48.5,50.5C 47.1482,51.5244 45.8149,52.5244 44.5,53.5C 45.9763,48.2462 48.3096,47.5796 51.5,51.5 Z"/></g>
<g><path style="opacity:1" fill="#201f29" d="M 137.5,42.5 C 134.594,41.2488 131.594,40.7488 128.5,41C 127.373,42.7533 126.373,44.5866 125.5,46.5C 129.965,48.2326 134.298,50.2326 138.5,52.5C 136.623,59.1758 133.623,65.1758 129.5,70.5C 131.157,66.5163 132.824,62.5163 134.5,58.5C 134.248,56.9271 133.582,55.5938 132.5,54.5C 133.967,55.2916 135.3,55.2916 136.5,54.5C 133.076,50.6886 128.743,49.022 123.5,49.5C 124.149,46.0554 125.482,42.8887 127.5,40C 131.406,39.0311 134.739,39.8644 137.5,42.5 Z"/></g>
<g><path style="opacity:1" fill="#242324" d="M 123.5,49.5 C 126.358,51.3121 129.358,52.9788 132.5,54.5C 129.201,53.6239 125.868,53.4572 122.5,54C 121.947,55.8778 120.947,57.3778 119.5,58.5C 119.5,57.8333 119.5,57.1667 119.5,56.5C 120.11,55.609 120.443,54.609 120.5,53.5C 121.5,52.1667 122.5,50.8333 123.5,49.5 Z"/></g>
<g><path style="opacity:1" fill="#eabe54" d="M 132.5,54.5 C 133.582,55.5938 134.248,56.9271 134.5,58.5C 132.824,62.5163 131.157,66.5163 129.5,70.5C 126.542,74.6911 124.542,79.3578 123.5,84.5C 121.011,89.3406 118.344,94.0073 115.5,98.5C 114.432,97.5655 113.099,97.2322 111.5,97.5C 110.232,95.953 108.565,94.953 106.5,94.5C 106.196,93.8501 105.863,93.1835 105.5,92.5C 106.801,89.5729 107.801,86.5729 108.5,83.5C 109.338,83.1583 109.672,82.4916 109.5,81.5C 111.931,77.8892 113.597,73.8892 114.5,69.5C 115.338,69.1583 115.672,68.4916 115.5,67.5C 117.592,64.9116 118.925,61.9116 119.5,58.5C 120.947,57.3778 121.947,55.8778 122.5,54C 125.868,53.4572 129.201,53.6239 132.5,54.5 Z"/></g>
<g><path style="opacity:1" fill="#1e4488" d="M 119.5,56.5 C 119.5,57.1667 119.5,57.8333 119.5,58.5C 117.393,61.0567 116.059,64.0567 115.5,67.5C 115.672,68.4916 115.338,69.1583 114.5,69.5C 112.069,73.1108 110.403,77.1108 109.5,81.5C 109.672,82.4916 109.338,83.1583 108.5,83.5C 106.76,85.9742 105.26,88.6409 104,91.5C 102.961,90.2899 101.794,89.2899 100.5,88.5C 99.5265,85.865 97.8598,83.865 95.5,82.5C 93.7583,79.3566 91.7583,76.3566 89.5,73.5C 97.7294,64.7184 107.729,59.0517 119.5,56.5 Z"/></g>
<g><path style="opacity:1" fill="#372d15" d="M 121.5,63.5 C 121.841,60.4842 123.007,57.8175 125,55.5C 124.706,58.5487 123.539,61.2154 121.5,63.5 Z"/></g>
<g><path style="opacity:1" fill="#3b3935" d="M 44.5,53.5 C 44.631,54.2389 44.4643,54.9056 44,55.5C 34.4845,65.2421 24.9845,74.9088 15.5,84.5C 24.0728,73.2567 33.7394,62.9234 44.5,53.5 Z"/></g>
<g><path style="opacity:1" fill="#dde0e7" d="M 162.5,58.5 C 165.518,58.3354 168.518,58.502 171.5,59C 167.97,60.1584 164.303,60.9917 160.5,61.5C 159.001,82.4872 158.167,103.487 158,124.5C 160.786,126.142 163.619,127.642 166.5,129C 160.113,128.045 153.78,126.545 147.5,124.5C 149.743,123.526 152.076,123.192 154.5,123.5C 155.35,103.182 156.016,82.8488 156.5,62.5C 152.787,63.2932 149.12,63.2932 145.5,62.5C 151.235,60.9763 156.901,59.643 162.5,58.5 Z"/></g>
<g><path style="opacity:1" fill="#1d1c1f" d="M 119.5,58.5 C 118.925,61.9116 117.592,64.9116 115.5,67.5C 116.059,64.0567 117.393,61.0567 119.5,58.5 Z"/></g>
<g><path style="opacity:1" fill="#3e3218" d="M 120.5,77.5 C 122.569,70.0269 125.736,63.0269 130,56.5C 129.694,58.8229 129.028,61.1563 128,63.5C 125.726,68.3874 123.226,73.0541 120.5,77.5 Z"/></g>
<g><path style="opacity:1" fill="#3c3a37" d="M 79.5,62.5 C 81.8598,63.865 83.5265,65.865 84.5,68.5C 82.086,67.0892 80.4194,65.0892 79.5,62.5 Z"/></g>
<g><path style="opacity:1" fill="#d8dce5" d="M 219.5,61.5 C 226.342,61.0385 233.009,61.8718 239.5,64C 243.031,65.5293 245.031,68.196 245.5,72C 243.423,80.4039 239.256,87.5706 233,93.5C 225.289,100.606 216.789,106.606 207.5,111.5C 206.857,121.137 206.19,130.804 205.5,140.5C 204.833,131.167 204.167,121.833 203.5,112.5C 197.048,115.446 190.381,117.78 183.5,119.5C 182.833,119.167 182.167,118.833 181.5,118.5C 189.046,116.429 196.38,113.762 203.5,110.5C 204.498,101.859 204.831,93.1922 204.5,84.5C 198.697,84.5503 193.364,83.0503 188.5,80C 186.022,78.062 185.855,75.8953 188,73.5C 197.654,67.0818 208.154,63.0818 219.5,61.5 Z"/></g>
<g><path style="opacity:1" fill="#1e468c" d="M 219.5,63.5 C 226.526,62.8048 233.193,63.9715 239.5,67C 242.059,71.788 241.892,76.6213 239,81.5C 231.073,93.2916 220.74,102.292 208,108.5C 207.5,100.841 207.334,93.1739 207.5,85.5C 216.616,85.4366 216.616,84.6033 207.5,83C 206.897,81.1746 206.23,79.3413 205.5,77.5C 204.548,79.0453 204.215,80.712 204.5,82.5C 199.505,82.3013 194.838,80.968 190.5,78.5C 189.386,77.277 189.219,75.9437 190,74.5C 192.408,72.0439 195.241,70.2106 198.5,69C 205.509,66.666 212.509,64.8326 219.5,63.5 Z"/></g>
<g><path style="opacity:1" fill="#d7dbe4" d="M 268.5,102.5 C 269.043,102.56 269.376,102.893 269.5,103.5C 268.687,104.814 267.687,105.981 266.5,107C 266.728,107.399 267.062,107.565 267.5,107.5C 266.697,108.423 266.53,109.423 267,110.5C 268.918,111.542 270.751,112.708 272.5,114C 271.407,115.365 270.074,115.699 268.5,115C 266.641,113.442 265.141,111.609 264,109.5C 262.954,117.243 261.454,117.243 259.5,109.5C 253.972,113.086 247.972,114.253 241.5,113C 239.14,107.695 240.64,104.195 246,102.5C 247.404,102.509 248.57,103.009 249.5,104C 244.534,103.631 242.367,105.798 243,110.5C 243.956,111.894 245.289,112.561 247,112.5C 252.048,111.307 256.715,109.307 261,106.5C 261.153,97.4497 261.82,88.4497 263,79.5C 263.837,74.7885 266.337,71.4552 270.5,69.5C 275.102,70.9497 277.102,74.1164 276.5,79C 275.364,87.6076 272.03,95.2743 266.5,102C 267.094,102.464 267.761,102.631 268.5,102.5 Z"/></g>
<g><path style="opacity:1" fill="#264a8f" d="M 269.5,71.5 C 271.39,71.2965 272.89,71.9632 274,73.5C 274.957,84.5976 271.624,94.2643 264,102.5C 262.986,91.5752 264.82,81.2419 269.5,71.5 Z"/></g>
<g><path style="opacity:1" fill="#3f3d36" d="M 66.5,65.5 C 68.0281,65.5173 68.5281,66.184 68,67.5C 60.2194,74.699 52.2194,81.699 44,88.5C 43.3333,87.8333 43.3333,87.1667 44,86.5C 51.4941,80.6327 58.6608,74.4661 65.5,68C 66.2524,67.3292 66.5858,66.4959 66.5,65.5 Z"/></g>
<g><path style="opacity:1" fill="#565249" d="M 74.5,73.5 C 76.5924,74.2855 76.2591,75.2855 73.5,76.5C 73.1667,76.1667 72.8333,75.8333 72.5,75.5C 73.2427,74.8182 73.9094,74.1515 74.5,73.5 Z"/></g>
<g><path style="opacity:1" fill="#28292b" d="M 84.5,68.5 C 86.5273,69.8606 88.194,71.5273 89.5,73.5C 91.7583,76.3566 93.7583,79.3566 95.5,82.5C 91.0775,78.4127 87.4108,73.7461 84.5,68.5 Z"/></g>
<g><path style="opacity:1" fill="#211e1a" d="M 114.5,69.5 C 113.597,73.8892 111.931,77.8892 109.5,81.5C 110.403,77.1108 112.069,73.1108 114.5,69.5 Z"/></g>
<g><path style="opacity:1" fill="#252326" d="M 129.5,70.5 C 128.449,75.6767 126.449,80.3434 123.5,84.5C 124.542,79.3578 126.542,74.6911 129.5,70.5 Z"/></g>
<g><path style="opacity:1" fill="#ece3c9" d="M 51.5,51.5 C 51.5106,53.0174 52.1772,54.1841 53.5,55C 44.1667,63 34.8333,71 25.5,79C 23.8757,80.1171 22.8757,81.6171 22.5,83.5C 24.0403,87.2135 26.207,90.5468 29,93.5C 33.6991,99.0286 38.5324,104.362 43.5,109.5C 49.8711,119.568 57.2045,128.901 65.5,137.5C 67.1108,141.051 69.4442,144.051 72.5,146.5C 73.4814,148.489 74.4814,150.489 75.5,152.5C 75.2668,153.932 74.6001,154.432 73.5,154C 53,133.5 32.5,113 12,92.5C 11.3333,91.5 11.3333,90.5 12,89.5C 13.8022,88.2107 14.9688,86.5441 15.5,84.5C 24.9845,74.9088 34.4845,65.2421 44,55.5C 44.4643,54.9056 44.631,54.2389 44.5,53.5C 45.8149,52.5244 47.1482,51.5244 48.5,50.5C 49.4168,51.1272 50.4168,51.4606 51.5,51.5 Z"/></g>
<g><path style="opacity:1" fill="#1d202b" d="M 95.5,82.5 C 97.8598,83.865 99.5265,85.865 100.5,88.5C 98.1097,87.1092 96.4431,85.1092 95.5,82.5 Z"/></g>
<g><path style="opacity:1" fill="#382d16" d="M 120.5,77.5 C 118.89,83.386 116.723,89.0526 114,94.5C 114.884,88.3496 117.05,82.6829 120.5,77.5 Z"/></g>
<g><path style="opacity:1" fill="#3b3832" d="M 62.5,84.5 C 63.2389,84.369 63.9056,84.5357 64.5,85C 59.1667,89.6667 53.8333,94.3333 48.5,99C 47.8333,99.6667 47.1667,99.6667 46.5,99C 51.7173,93.9161 57.0506,89.0828 62.5,84.5 Z"/></g>
<g><path style="opacity:1" fill="#2e2c27" d="M 74.5,89.5 C 75.5618,87.2435 77.2285,86.0768 79.5,86C 78.2107,87.8022 76.5441,88.9688 74.5,89.5 Z"/></g>
<g><path style="opacity:1" fill="#312f2a" d="M 39.5,88.5 C 41.9732,88.9473 42.1399,89.9473 40,91.5C 39.5172,90.552 39.3505,89.552 39.5,88.5 Z"/></g>
<g><path style="opacity:1" fill="#362c15" d="M 121.5,63.5 C 117.687,73.7567 113.187,83.7567 108,93.5C 111.234,82.9805 115.734,72.9805 121.5,63.5 Z"/></g>
<g><path style="opacity:1" fill="#3e3b35" d="M 86.5,91.5 C 87.7125,92.4971 87.5458,93.4971 86,94.5C 85.5304,93.4232 85.6971,92.4232 86.5,91.5 Z"/></g>
<g><path style="opacity:1" fill="#1b1a1c" d="M 108.5,83.5 C 107.801,86.5729 106.801,89.5729 105.5,92.5C 105.863,93.1835 106.196,93.8501 106.5,94.5C 105.504,94.4142 104.671,94.7476 104,95.5C 103.011,93.0302 101.845,90.6968 100.5,88.5C 101.794,89.2899 102.961,90.2899 104,91.5C 105.26,88.6409 106.76,85.9742 108.5,83.5 Z"/></g>
<g><path style="opacity:1" fill="#3b3934" d="M 79.5,62.5 C 75.0322,57.8613 70.6989,53.028 66.5,48C 65.5,47.3333 64.5,47.3333 63.5,48C 50.4269,59.6179 37.2603,71.1179 24,82.5C 24.044,84.2785 24.7107,85.9452 26,87.5C 32.5721,94.3476 38.4054,101.681 43.5,109.5C 38.5324,104.362 33.6991,99.0286 29,93.5C 26.207,90.5468 24.0403,87.2135 22.5,83.5C 22.8757,81.6171 23.8757,80.1171 25.5,79C 34.8333,71 44.1667,63 53.5,55C 52.1772,54.1841 51.5106,53.0174 51.5,51.5C 53.0443,51.7031 54.3777,52.3698 55.5,53.5C 58.5448,50.4534 61.8781,47.7867 65.5,45.5C 69.4525,48.7415 72.9525,52.4082 76,56.5C 77.4213,58.4048 78.588,60.4048 79.5,62.5 Z"/></g>
<g><path style="opacity:1" fill="#28251e" d="M 106.5,94.5 C 108.565,94.953 110.232,95.953 111.5,97.5C 109.152,97.4077 107.486,96.4077 106.5,94.5 Z"/></g>
<g><path style="opacity:1" fill="#302e28" d="M 74.5,89.5 C 70.7036,93.7978 66.7036,97.9644 62.5,102C 61.5,102.667 60.5,102.667 59.5,102C 64.3925,97.5988 69.3925,93.4322 74.5,89.5 Z"/></g>
<g><path style="opacity:1" fill="#3f3c35" d="M 94.5,100.5 C 96.9752,100.747 96.9752,101.413 94.5,102.5C 93.537,102.03 93.537,101.363 94.5,100.5 Z"/></g>
<g><path style="opacity:1" fill="#d7dbe4" d="M 171.5,101.5 C 172.978,101.238 174.311,101.571 175.5,102.5C 176.577,104.729 177.244,107.063 177.5,109.5C 182.238,110.258 186.238,108.925 189.5,105.5C 189.833,105.667 190.167,105.833 190.5,106C 187.628,109.853 183.795,112.02 179,112.5C 176.849,112.357 175.182,111.357 174,109.5C 173.902,107.381 173.069,105.714 171.5,104.5C 169.281,107.124 167.614,110.124 166.5,113.5C 165.914,113.291 165.414,112.957 165,112.5C 164.502,109.518 164.335,106.518 164.5,103.5C 166.124,103.36 167.29,104.027 168,105.5C 169.032,103.973 170.199,102.64 171.5,101.5 Z"/></g>
<g><path style="opacity:1" fill="#d9dde5" d="M 289.5,86.5 C 291.388,88.9878 292.055,91.9878 291.5,95.5C 299.5,95.8333 299.5,96.1667 291.5,96.5C 291.504,103.212 291.671,109.879 292,116.5C 290.39,114.403 289.223,112.07 288.5,109.5C 284.324,113.302 279.824,113.969 275,111.5C 273.167,104.166 276,101.166 283.5,102.5C 283.481,106.841 281.481,108.175 277.5,106.5C 276.26,109.297 277.26,110.963 280.5,111.5C 282.944,110.778 285.278,109.778 287.5,108.5C 288.491,104.555 288.824,100.555 288.5,96.5C 283.5,95.9969 283.833,95.6636 289.5,95.5C 289.5,92.5 289.5,89.5 289.5,86.5 Z"/></g>
<g><path style="opacity:1" fill="#212125" d="M 123.5,84.5 C 121.576,89.7726 119.742,95.1059 118,100.5C 116.414,101.376 114.914,102.376 113.5,103.5C 115.552,106.536 117.552,109.536 119.5,112.5C 116.666,110.498 114.333,107.998 112.5,105C 110.433,104.464 108.599,104.964 107,106.5C 105.699,104.635 105.365,102.635 106,100.5C 106.408,102.41 107.575,103.41 109.5,103.5C 112.382,102.747 114.382,101.081 115.5,98.5C 118.344,94.0073 121.011,89.3406 123.5,84.5 Z"/></g>
<g><path style="opacity:1" fill="#dee0e8" d="M 233.5,102.5 C 238.151,103.174 239.651,105.841 238,110.5C 235.925,112.648 233.592,112.982 231,111.5C 229.93,107.858 230.764,104.858 233.5,102.5 Z"/></g>
<g><path style="opacity:1" fill="#345495" d="M 234.5,104.5 C 235.649,104.791 236.316,105.624 236.5,107C 236.642,109.912 235.309,111.412 232.5,111.5C 232.394,108.921 233.061,106.588 234.5,104.5 Z"/></g>
<g><path style="opacity:1" fill="#435d9a" d="M 279.5,103.5 C 280.376,103.369 281.043,103.702 281.5,104.5C 279.192,105.873 278.525,105.54 279.5,103.5 Z"/></g>
<g><path style="opacity:1" fill="#3b3933" d="M 56.5,103.5 C 57.2389,103.369 57.9056,103.536 58.5,104C 56.92,106.295 54.92,107.628 52.5,108C 54.0414,106.629 55.3747,105.129 56.5,103.5 Z"/></g>
<g><path style="opacity:1" fill="#393731" d="M 79.5,97.5 C 80.525,97.8966 80.6917,98.5632 80,99.5C 77.6166,102.273 74.7833,104.439 71.5,106C 69.4023,108.854 67.069,111.521 64.5,114C 63.2411,114.982 61.9078,115.315 60.5,115C 66.3772,108.621 72.7105,102.787 79.5,97.5 Z"/></g>
<g><path style="opacity:1" fill="#e6e7ec" d="M 268.5,102.5 C 269.209,101.596 270.209,101.263 271.5,101.5C 271.378,104.292 270.044,106.292 267.5,107.5C 267.062,107.565 266.728,107.399 266.5,107C 267.687,105.981 268.687,104.814 269.5,103.5C 269.376,102.893 269.043,102.56 268.5,102.5 Z"/></g>
<g><path style="opacity:1" fill="#3a3832" d="M 43.5,109.5 C 51.3132,118.462 58.6465,127.795 65.5,137.5C 57.2045,128.901 49.8711,119.568 43.5,109.5 Z"/></g>
<g><path style="opacity:1" fill="#1c2232" d="M 119.5,112.5 C 124.989,116.75 124.322,120.084 117.5,122.5C 119.016,120.814 120.35,118.981 121.5,117C 120.586,115.594 119.92,114.094 119.5,112.5 Z"/></g>
<g><path style="opacity:1" fill="#36332e" d="M 86.5,107.5 C 87.2389,107.369 87.9056,107.536 88.5,108C 82.5,113.333 76.5,118.667 70.5,124C 68.9556,125.187 67.2889,125.52 65.5,125C 72.9403,119.625 79.9403,113.791 86.5,107.5 Z"/></g>
<g><path style="opacity:1" fill="#383630" d="M 92.5,114.5 C 93.2389,114.369 93.9056,114.536 94.5,115C 88.562,121.726 82.062,127.893 75,133.5C 77.6648,129.501 81.1648,126.001 85.5,123C 87.6677,120.002 90.0011,117.169 92.5,114.5 Z"/></g>
<g><path style="opacity:1" fill="#3a3936" d="M 15.5,84.5 C 14.9688,86.5441 13.8022,88.2107 12,89.5C 11.3333,90.5 11.3333,91.5 12,92.5C 32.5,113 53,133.5 73.5,154C 74.6001,154.432 75.2668,153.932 75.5,152.5C 74.4814,150.489 73.4814,148.489 72.5,146.5C 75.0016,148.17 77.0016,150.336 78.5,153C 79.1667,153.667 79.8333,153.667 80.5,153C 92.7261,142.598 105.059,132.431 117.5,122.5C 115.833,124.5 114.167,126.5 112.5,128.5C 101.415,136.744 90.7485,145.578 80.5,155C 79.0039,155.507 77.8373,155.007 77,153.5C 76.6322,154.91 75.7989,155.91 74.5,156.5C 52.8741,135.374 31.3741,114.041 10,92.5C 10.32,88.978 12.1533,86.3113 15.5,84.5 Z"/></g>
<g><path style="opacity:1" fill="#33312b" d="M 65.5,137.5 C 68.5558,139.949 70.8892,142.949 72.5,146.5C 69.4442,144.051 67.1108,141.051 65.5,137.5 Z"/></g>
</svg>
